<?xml version="1.0" encoding="UTF-8" standalone="no"?>
<!-- Created with Inkscape (http://www.inkscape.org/) -->

<svg
   width="341mm"
   height="123mm"
   viewBox="0 0 341 123"
   version="1.1"
   id="svg496"
   inkscape:version="1.2.2 (732a01da63, 2022-12-09)"
   sodipodi:docname="enrisefont.svg"
   xmlns:inkscape="http://www.inkscape.org/namespaces/inkscape"
   xmlns:sodipodi="http://sodipodi.sourceforge.net/DTD/sodipodi-0.dtd"
   xmlns="http://www.w3.org/2000/svg"
   xmlns:svg="http://www.w3.org/2000/svg">
  <sodipodi:namedview
     id="namedview498"
     pagecolor="#505050"
     bordercolor="#eeeeee"
     borderopacity="1"
     inkscape:showpageshadow="0"
     inkscape:pageopacity="0"
     inkscape:pagecheckerboard="0"
     inkscape:deskcolor="#505050"
     inkscape:document-units="mm"
     showgrid="false"
     inkscape:zoom="0.5"
     inkscape:cx="645"
     inkscape:cy="378"
     inkscape:window-width="1600"
     inkscape:window-height="837"
     inkscape:window-x="-8"
     inkscape:window-y="-8"
     inkscape:window-maximized="1"
     inkscape:current-layer="layer1" />
  <defs
     id="defs493">
    <rect
       x="454.25681"
       y="396.8504"
       width="578.69415"
       height="283.32669"
       id="rect1056" />
  </defs>
  <g
     inkscape:label="Layer 1"
     inkscape:groupmode="layer"
     id="layer1">
    <g
       aria-label="Enrise"
       id="text671"
       style="font-weight:bold;font-size:88.7793px;font-family:Boldena;-inkscape-font-specification:'Boldena Bold';fill:#1a2e45;stroke:#1a2e45;stroke-width:1.21635;stroke-linecap:round;stroke-miterlimit:3.9;paint-order:markers fill stroke">
      <g
         id="g1341">
        <g
           aria-label="Rise"
           transform="matrix(0.45789448,0,0,0.45789448,-69.449226,-167.03993)"
           id="text1054"
           style="font-size:192px;white-space:pre;shape-inside:url(#rect1056);stroke-width:2.63055" />
      </g>
    </g>
    <path
       id="path1062"
       style="font-weight:bold;font-size:192px;font-family:Boldena;-inkscape-font-specification:'Boldena Bold';fill:#1a2e45;stroke:#1a2e45;stroke-width:2.63055;stroke-linecap:round;stroke-miterlimit:3.9;paint-order:markers fill stroke;white-space:pre;shape-inside:url(#rect1056)"
       d="M 280.8657 440.74467 C 274.01507 440.74467 267.61688 442.03727 261.67104 444.62242 C 255.7252 447.20756 250.55477 450.69739 246.16003 455.09213 C 241.76529 459.48688 238.27545 464.65733 235.69032 470.60315 C 233.10516 476.54899 231.81256 482.94718 231.81256 489.79781 L 231.81256 527.4118 C 231.81256 534.13319 233.10519 540.4665 235.69032 546.41234 C 238.27545 552.35814 241.76529 557.52859 246.16003 561.92336 C 250.55477 566.31808 255.7252 569.80793 261.67104 572.39307 C 267.61686 574.9782 274.01507 576.27082 280.8657 576.27082 L 318.6738 576.27082 C 321.64671 576.27082 324.23193 575.17277 326.42931 572.97541 C 328.62667 570.77803 329.72473 568.19279 329.72473 565.2199 C 329.72473 562.1177 328.62667 559.53249 326.42931 557.46439 C 324.23193 555.26701 321.64671 554.16785 318.6738 554.16785 L 280.8657 554.16785 C 277.11724 554.16785 273.62741 553.4578 270.39599 552.03599 C 267.16455 550.61413 264.3859 548.73895 262.05927 546.41234 C 259.6034 543.95645 257.66445 541.1129 256.24264 537.88151 C 254.82081 534.5208 254.10965 531.03099 254.10965 527.4118 L 254.10965 519.55923 L 306.65232 519.55923 C 309.75449 519.55923 312.40458 518.46116 314.60194 516.26382 C 316.7993 514.06644 317.89735 511.48122 317.89735 508.50831 C 317.89735 505.40614 316.7993 502.82092 314.60194 500.7528 C 312.40458 498.55542 309.75449 497.45626 306.65232 497.45626 L 254.10965 497.45626 L 254.10965 489.79781 C 254.10965 486.04936 254.82081 482.55952 256.24264 479.3281 C 257.66447 476.09668 259.60225 473.318 262.05814 470.99138 C 264.38477 468.53553 267.16457 466.59658 270.39599 465.17475 C 273.62741 463.75291 277.11724 463.04176 280.8657 463.04176 L 318.6738 463.04176 C 321.64671 463.04176 324.23193 461.94372 326.42931 459.74634 C 328.62667 457.549 329.72473 454.96377 329.72473 451.99083 C 329.72473 448.88866 328.62667 446.23857 326.42931 444.04121 C 324.23193 441.84383 321.64671 440.74467 318.6738 440.74467 L 280.8657 440.74467 z M 472.87886 441.78069 C 470.70288 441.78069 468.78377 442.35767 467.11979 443.50966 C 465.45578 444.66165 464.17527 446.13263 463.27927 447.92461 C 462.38326 449.20462 461.93515 450.86938 461.93515 452.91739 L 461.93515 565.81353 C 461.93515 568.75752 463.02299 571.31742 465.19897 573.49342 C 467.37497 575.6694 469.93487 576.75724 472.87886 576.75724 C 475.95085 576.75724 478.51077 575.6694 480.55875 573.49342 C 482.73476 571.31742 483.8237 568.75752 483.8237 565.81353 L 483.8237 525.10952 L 519.72678 525.10952 L 520.09018 525.06551 C 520.18714 525.09281 520.28455 525.10952 520.38248 525.10952 C 524.13091 525.10952 527.62188 525.82068 530.85332 527.24251 C 534.08473 528.66435 536.86341 530.60328 539.19004 533.05914 C 541.6459 535.38577 543.58481 538.16445 545.00667 541.39586 C 546.42848 544.62728 547.13966 548.11712 547.13966 551.86557 L 547.13966 565.6939 C 547.13966 568.66683 548.23773 571.25203 550.43507 573.44941 C 552.63243 575.64677 555.21765 576.74595 558.19058 576.74595 C 561.29273 576.74595 563.94282 575.64677 566.1402 573.44941 C 568.33756 571.25203 569.43561 568.66683 569.43561 565.6939 L 569.43561 551.86557 C 569.43561 545.01496 568.143 538.61676 565.55786 532.67092 C 562.97273 526.7251 559.48289 521.55575 555.08815 517.16103 C 554.72411 516.79699 554.35231 516.44165 553.97764 516.09002 C 557.04334 513.65455 559.77241 510.7749 562.15975 507.4452 C 567.02375 500.53322 569.4548 492.6608 569.4548 483.82882 C 569.58278 478.19683 568.55884 472.88546 566.38284 467.89346 C 564.33484 462.77347 561.3918 458.22952 557.55181 454.26151 C 553.58383 450.16553 549.0387 447.09362 543.91873 445.04564 C 538.79873 442.86964 533.48734 441.78069 527.98337 441.78069 L 472.87886 441.78069 z M 483.8237 463.8611 L 527.98337 463.8611 C 533.35934 463.8611 537.9672 465.78129 541.80718 469.6213 C 543.72718 471.41328 545.13541 473.58893 546.0314 476.14893 C 547.0554 478.58093 547.56738 481.07697 547.56738 483.63696 C 547.56738 486.32496 547.0554 488.88486 546.0314 491.31686 C 545.00741 493.62086 543.59919 495.66877 541.80718 497.46077 C 540.0152 499.25276 537.90339 500.66099 535.47141 501.685 C 533.16741 502.70899 530.67135 503.22098 527.98337 503.22098 L 483.8237 503.22098 L 483.8237 463.8611 z M 355.31836 479.03693 C 352.21618 479.03693 349.56612 480.1361 347.36873 482.33347 C 345.30064 484.53084 344.2663 487.18092 344.2663 490.28309 L 344.2663 528.09007 L 344.2663 565.89817 C 344.2663 568.87108 345.30064 571.45631 347.36873 573.65368 C 349.43443 575.71935 351.90007 576.81288 354.76536 576.93668 C 354.94813 576.94519 355.13255 576.95022 355.31836 576.95022 C 355.50416 576.95022 355.68856 576.94519 355.87135 576.93668 C 358.72886 576.81265 361.12995 575.71909 363.07386 573.65368 C 365.27122 571.45631 366.36928 568.87108 366.36928 565.89817 L 366.36928 528.09007 C 366.36928 524.34161 367.08046 520.85178 368.50227 517.62036 C 369.9241 514.38893 371.79818 511.61026 374.12479 509.28364 C 376.58068 506.82775 379.4242 504.88883 382.65562 503.467 C 386.01632 502.04518 389.50612 501.33401 393.12533 501.33401 C 396.87377 501.33401 400.36473 502.04518 403.59617 503.467 C 406.82759 504.88883 409.60626 506.82775 411.93289 509.28364 C 414.38878 511.61026 416.32767 514.38893 417.74952 517.62036 C 419.17133 520.85178 419.88251 524.34161 419.88251 528.09007 L 419.88251 565.89817 C 419.88251 568.87108 420.98056 571.45631 423.17792 573.65368 C 425.37528 575.85105 427.9605 576.95022 430.93343 576.95022 C 434.03559 576.95022 436.68567 575.85105 438.88305 573.65368 C 441.08041 571.45631 442.17847 568.87108 442.17847 565.89817 L 442.17847 528.09007 C 442.17847 521.23944 440.88585 514.84123 438.30071 508.89541 C 435.71558 502.94959 432.22575 497.78026 427.831 493.38552 C 423.43626 488.99078 418.2658 485.49982 412.31999 482.91468 C 406.37417 480.32954 399.97594 479.03693 393.12533 479.03693 C 386.40394 479.03693 380.07063 480.32954 374.12479 482.91468 C 371.23251 484.1722 368.52549 485.64618 366.00024 487.33189 C 365.51189 485.46503 364.53865 483.79827 363.07386 482.33347 C 360.87648 480.1361 358.29126 479.03693 355.31836 479.03693 z M 596.71984 479.79645 C 593.64784 479.79645 591.02407 480.88428 588.84809 483.06027 C 586.80009 485.23627 585.77613 487.86116 585.77613 490.93315 L 585.77613 565.8124 C 585.77613 568.7564 586.80009 571.31629 588.84809 573.49229 C 591.02407 575.66829 593.64784 576.75611 596.71984 576.75611 C 599.66382 576.75611 602.22373 575.66829 604.39973 573.49229 C 606.57573 571.31629 607.66354 568.7564 607.66354 565.8124 L 607.66354 490.93315 C 607.66354 487.86116 606.57573 485.23627 604.39973 483.06027 C 602.22373 480.88428 599.66382 479.79645 596.71984 479.79645 z M 763.56822 479.79758 C 756.91266 479.79773 750.64042 481.07711 744.75276 483.63696 C 738.86478 486.19695 733.74496 489.65311 729.39297 494.0051 C 725.04098 498.35709 721.58482 503.47691 719.02483 509.36489 C 716.56845 515.01458 715.30406 521.08163 715.20464 527.55625 C 715.20264 527.60145 715.19786 527.64556 715.19786 527.69168 C 715.19786 527.72718 715.19899 527.76228 715.19899 527.79777 C 715.19699 527.99046 715.18545 528.17992 715.18545 528.37334 C 715.18545 535.02932 716.51716 539.21435 716.51716 539.21435 L 716.51829 539.21435 C 717.1467 541.84994 717.99692 544.40794 719.07449 546.88634 C 721.65963 552.83215 725.15059 558.00262 729.54533 562.39736 C 733.94004 566.79209 739.1094 570.28193 745.05522 572.86707 C 751.00103 575.45219 757.39924 576.74522 764.24987 576.74482 L 783.2775 576.74369 C 786.25038 576.74352 788.83565 575.64564 791.03301 573.44828 C 793.2304 571.2509 794.32955 568.6008 794.32955 565.49866 C 794.32955 562.52573 793.2304 559.94051 791.03301 557.74315 C 788.83565 555.54579 786.25038 554.44755 783.2775 554.44773 L 764.24987 554.44886 C 760.50142 554.44907 757.0116 553.73769 753.78016 552.31587 C 750.54875 550.89402 747.77004 548.95513 745.44344 546.49924 C 743.2852 544.45459 741.52705 542.06039 740.1674 539.31704 L 795.63192 539.31704 C 797.93592 539.31704 800.11155 538.86892 802.15955 537.97292 C 804.33555 536.94893 806.1919 535.54183 807.72789 533.74983 C 810.92788 530.03783 812.20728 525.68544 811.56728 520.69344 L 811.56841 520.69344 C 810.67241 514.93346 808.7522 509.55709 805.8082 504.5651 C 802.99222 499.57311 799.47219 495.2857 795.24821 491.7017 C 791.02421 487.98971 786.15983 485.10939 780.65584 483.0614 C 775.28019 480.88553 769.58492 479.79772 763.56935 479.79758 L 763.56822 479.79758 z M 651.43951 480.75686 C 647.47151 480.75686 643.75994 481.5254 640.30394 483.0614 C 636.84795 484.46939 633.83992 486.51731 631.27992 489.20531 C 628.71993 491.76531 626.67201 494.77333 625.13601 498.22933 C 623.60001 501.68532 622.83148 505.3969 622.83148 509.36489 C 622.83148 512.94889 623.40844 516.34118 624.56044 519.54118 C 625.84044 522.61317 627.56795 525.4285 629.74395 527.9885 C 632.04794 530.42049 634.6717 532.46841 637.6157 534.13241 C 640.68769 535.79641 643.95227 536.82037 647.40827 537.20437 C 652.27226 537.84437 657.51977 538.54905 663.15177 539.31704 C 668.78376 539.95704 674.0324 540.59674 678.8964 541.23674 C 680.4324 541.49274 681.71178 542.19741 682.73578 543.34941 C 683.75978 544.50141 684.27176 545.84465 684.27176 547.38065 C 684.27176 549.17265 683.63207 550.70859 682.35207 551.98859 C 681.07207 553.26859 679.47227 553.90941 677.55228 553.90941 L 636.65641 553.90941 C 633.71242 553.90941 631.15252 554.99722 628.97652 557.17322 C 626.80052 559.34922 625.71158 561.97298 625.71158 565.04497 C 625.71158 567.98897 626.80052 570.54887 628.97652 572.72487 C 631.15252 574.90087 633.71242 575.98868 636.65641 575.98868 L 677.55228 575.98868 C 681.39227 575.98868 685.03999 575.28513 688.49598 573.87713 C 692.07998 572.34114 695.21572 570.22936 697.90371 567.54136 C 700.59171 564.85336 702.63963 561.78036 704.04763 558.32436 C 705.45563 554.74036 706.16031 551.09265 706.16031 547.38065 C 706.16031 543.79666 705.51948 540.40437 704.23949 537.20437 C 703.08749 534.00437 701.42383 531.18905 699.24784 528.75705 C 697.07184 526.19705 694.44808 524.14913 691.37609 522.61313 C 688.43209 520.94914 685.16751 519.86132 681.58351 519.34932 L 650.09651 515.50881 C 648.56051 515.25281 647.28 514.54926 646.256 513.39726 C 645.232 512.24526 644.72002 510.90089 644.72002 509.36489 C 644.72002 507.57289 645.35971 506.03695 646.63971 504.75696 C 648.04771 503.34896 649.64751 502.64541 651.43951 502.64541 L 689.45639 502.64541 C 692.52839 502.64541 695.15215 501.62145 697.32814 499.57345 C 699.50414 497.39745 700.59196 494.77257 700.59196 491.70057 C 700.59196 488.62857 699.50414 486.06868 697.32814 484.02068 C 695.15215 481.84468 692.52839 480.75686 689.45639 480.75686 L 651.43951 480.75686 z M 763.56935 501.87685 C 768.94534 501.87685 773.74473 503.34894 777.96873 506.29294 C 782.32072 509.10892 785.5853 512.82163 787.7613 517.42963 L 739.56926 517.42963 C 741.74525 512.82163 744.94486 509.10892 749.16884 506.29294 C 753.39284 503.34894 758.19336 501.87685 763.56935 501.87685 z "
       transform="matrix(0.45789448,0,0,0.45789448,-69.449225,-167.03993)" />
  </g>
</svg>
