<?xml version="1.0" encoding="UTF-8" standalone="no"?>
<!-- Created with Inkscape (http://www.inkscape.org/) -->

<svg
   width="422mm"
   height="267mm"
   viewBox="0 0 422 267"
   version="1.1"
   id="svg1359"
   xml:space="preserve"
   inkscape:version="1.2.2 (732a01da63, 2022-12-09)"
   sodipodi:docname="enriselogo1.svg"
   inkscape:export-filename="enriselogo1.png"
   inkscape:export-xdpi="96"
   inkscape:export-ydpi="96"
   xmlns:inkscape="http://www.inkscape.org/namespaces/inkscape"
   xmlns:sodipodi="http://sodipodi.sourceforge.net/DTD/sodipodi-0.dtd"
   xmlns="http://www.w3.org/2000/svg"
   xmlns:svg="http://www.w3.org/2000/svg"><sodipodi:namedview
     id="namedview1361"
     pagecolor="#505050"
     bordercolor="#eeeeee"
     borderopacity="1"
     inkscape:showpageshadow="0"
     inkscape:pageopacity="0"
     inkscape:pagecheckerboard="0"
     inkscape:deskcolor="#505050"
     inkscape:document-units="mm"
     showgrid="false"
     inkscape:zoom="0.41386281"
     inkscape:cx="798.5738"
     inkscape:cy="635.47628"
     inkscape:window-width="1600"
     inkscape:window-height="837"
     inkscape:window-x="-8"
     inkscape:window-y="-8"
     inkscape:window-maximized="1"
     inkscape:current-layer="layer1" /><defs
     id="defs1356" /><g
     inkscape:label="Layer 1"
     inkscape:groupmode="layer"
     id="layer1"><g
       id="g6811"
       transform="matrix(-1,0,0,1,294.24853,-23.49772)"
       style="display:inline;fill:#1a2e45;fill-opacity:1;stroke:#1a2e45;stroke-opacity:1"><path
         id="path4994"
         style="display:inline;fill:#1a2e45;fill-opacity:1;stroke:#1a2e45;stroke-width:0.609643;stroke-linecap:round;stroke-miterlimit:3.9;stroke-opacity:1;paint-order:markers fill stroke"
         d="m 163.26964,28.592794 c 0.0958,0.01588 0.19176,0.02838 0.28836,0.03927 l 29.12638,13.446725 c 0.13441,0.201336 0.26551,0.40462 0.39068,0.611849 v 5.16e-4 c 0.007,0.133072 0.009,0.266593 0.002,0.399459 -0.0122,0.172522 -0.0283,0.348403 -0.0646,0.519348 -0.0222,0.05231 -0.0475,0.103686 -0.078,0.152446 -0.11406,0.173806 -0.24358,0.335282 -0.39171,0.479557 l -6.29471,2.04432 5.09943,2.285648 c 2.44115,1.094021 3.56495,3.824583 2.51923,6.122107 -1.04567,2.297532 -3.85318,3.266563 -6.29419,2.172478 L 187.37566,56.778154 177.26,79.169552 c 4.21056,2.478052 7.10843,6.703037 7.91166,11.53418 1.49636,9.000925 -4.56248,17.514628 -13.53302,19.015898 -2.64366,0.43825 -5.3538,0.22246 -7.89564,-0.62839 l -15.05593,28.62668 0.601,0.26923 c 2.44105,1.09397 3.56437,3.82418 2.5187,6.12159 -1.04562,2.29756 -3.85303,3.26707 -6.29418,2.17299 l -31.9748,-14.32987 c -2.44118,-1.09409 -3.56437,-3.82514 -2.51871,-6.12262 1.04565,-2.29745 3.85257,-3.2659 6.29368,-2.17196 l 0.31005,0.13901 38.68912,-80.940284 -0.71366,-0.319877 c -2.44149,-1.09388 -3.56489,-3.824058 -2.51922,-6.12159 0.65349,-1.435959 1.99481,-2.353194 3.50521,-2.571936 0.90615,-0.131192 1.87339,-0.01124 2.78898,0.398942 l 3.79667,1.701705 -0.81184,-6.476091 c 0.009,-0.03502 0.0162,-0.07027 0.0264,-0.105419 0.12084,-0.155305 0.25329,-0.301651 0.39068,-0.441834 0.0197,-0.02032 0.042,-0.03765 0.062,-0.05788 0.0814,-0.06333 0.16443,-0.124421 0.25063,-0.181901 0.0573,-0.03753 0.12048,-0.06073 0.18138,-0.08733 z m 19.62878,43.35446 18.42885,0.0217 10.39419,18.3441 c 11.52464,4.12891 18.96257,7.848694 28.16469,16.077052 l 20.01945,-1.3627 21.92735,36.59259 -11.621,16.33492 c 1.6906,7.35846 2.54737,14.89239 2.55437,22.45238 -0.001,5.92519 -0.52475,11.83816 -1.56425,17.66662 l 12.20029,17.0217 -22.0338,37.41942 -17.85575,-1.42317 c -10.25241,10.15797 -22.58552,17.84206 -36.10013,22.49217 l -6.94583,11.76414 -48.27612,0.0543 -6.40323,-12.12536 c -12.42128,-4.3779 -23.83248,-11.32812 -33.52508,-20.4189 l -20.023585,1.5968 -6.331914,-11.8799 H 53.332166 c -6.096189,0 -11.00398,-3.95275 -11.00398,-8.86302 v -4.83227 c 0,-4.91026 4.907791,-8.86354 11.00398,-8.86354 h 94.224224 c 6.09619,0 11.00398,3.95328 11.00398,8.86354 v 4.83227 c 0,4.91027 -4.90779,8.86302 -11.00398,8.86302 h -20.32021 c 12.1473,9.90055 29.13942,10.30796 49.70394,10.31152 39.71932,0 71.91861,-32.44997 71.91861,-72.4793 -0.004,-39.76017 -28.57944,-69.46524 -68.02995,-69.83966 0.003,-0.34459 0.01,-0.68897 0.0129,-1.03353 4.54339,-2.67036 7.58574,-9.683235 7.62124,-17.56844 h -0.0181 c 0.001,-0.01356 0.002,-0.02715 0.003,-0.04082 0.002,-0.01995 0.002,-0.03999 0.004,-0.05994 h 0.0103 c -0.001,-0.02223 -0.002,-0.04442 -0.003,-0.06666 0.003,-0.0488 0.004,-0.09785 0.005,-0.146762 0.007,-0.0924 -0.008,-0.183721 -0.0227,-0.274401 -0.005,-0.01334 -0.008,-0.02656 -0.0103,-0.03979 v -5.17e-4 c 0,-6.197964 -2.29106,-11.814918 -5.5423,-15.024923 -0.0216,-0.161831 -0.0342,-0.323461 -0.047,-0.486792 -0.0427,-0.744746 -0.0483,-1.491308 -0.0553,-2.237072 -0.001,-0.146116 -0.001,-0.292102 -0.002,-0.438217 0.0507,-0.399566 0.0893,-0.800478 0.11421,-1.20251 z M 168.73597,84.78523 c -0.41618,0.0057 -0.83721,0.04288 -1.26038,0.113688 -4.51387,0.755202 -7.56262,5.038714 -6.80992,9.567892 0.75288,4.529341 5.02282,7.58909 9.53688,6.83369 4.51397,-0.75533 7.56292,-5.039674 6.80992,-9.568924 -0.68249,-4.104476 -4.25339,-7.001369 -8.2765,-6.946346 z m 28.83029,56.02242 c 4.05893,0 7.85011,0.68311 11.37294,2.04897 3.52286,1.3661 6.5863,3.20979 9.19014,5.53196 2.60384,2.32229 4.67157,5.05423 6.20324,8.19588 1.53168,3.14182 2.29753,6.5227 2.29753,10.14254 v 19.87527 c 0,3.55159 -0.76586,6.898 -2.29753,10.0397 -1.53167,3.14176 -3.5994,5.87406 -6.20324,8.1964 -2.60384,2.3222 -5.66728,4.16582 -9.19014,5.53196 -3.52281,1.36594 -7.31401,2.04897 -11.37294,2.04897 h -22.4007 c -1.76141,0 -3.29314,-0.58046 -4.59507,-1.7415 -1.30193,-1.16121 -1.95234,-2.52695 -1.95234,-4.09794 0,-1.63896 0.65041,-3.00526 1.95234,-4.09794 1.30193,-1.16106 2.83366,-1.74149 4.59507,-1.74149 h 22.4007 c 2.22092,0 4.28865,-0.37582 6.20323,-1.12707 1.9146,-0.75139 3.56123,-1.74197 4.93975,-2.97139 1.45507,-1.29751 2.60391,-2.80032 3.44631,-4.50774 0.84243,-1.7758 1.26348,-3.61951 1.26348,-5.53196 v -4.1491 h -31.13091 c -1.83799,0 -3.4084,-0.58035 -4.71031,-1.7415 -1.30192,-1.16088 -1.95233,-2.52713 -1.95233,-4.09794 0,-1.63928 0.65041,-3.00523 1.95233,-4.09794 1.30191,-1.16118 2.87232,-1.74201 4.71031,-1.74201 h 31.13091 V 166.727 c 0,-1.98069 -0.42105,-3.8244 -1.26348,-5.53196 -0.84241,-1.70731 -1.9907,-3.17554 -3.44579,-4.4049 -1.37852,-1.29775 -3.02568,-2.32237 -4.94027,-3.07372 -1.91458,-0.75142 -3.98231,-1.12706 -6.20323,-1.12706 h -22.4007 c -1.76141,0 -3.29314,-0.58063 -4.59507,-1.7415 -1.30193,-1.16132 -1.95234,-2.52715 -1.95234,-4.09794 0,-1.63933 0.65041,-3.03943 1.95234,-4.20077 1.30193,-1.16088 2.83366,-1.7415 4.59507,-1.7415 z M 83.80059,141.3549 c 1.289139,0 2.426196,0.30494 3.412195,0.91364 0.985879,0.60867 1.744634,1.38572 2.275313,2.33268 0.53082,0.67622 0.796334,1.55591 0.796334,2.63808 v 59.65424 c 0,1.55568 -0.644643,2.90806 -1.933732,4.05815 -1.289229,1.14955 -2.805932,1.72444 -4.55011,1.72444 -1.820308,0 -3.336671,-0.57489 -4.55011,-1.72444 -1.289369,-1.15009 -1.934765,-2.50247 -1.934765,-4.05815 V 185.38581 H 56.043628 l -0.215491,-0.0233 c -0.0578,0.0144 -0.115316,0.0233 -0.173116,0.0233 -2.221038,0 -4.289177,0.37591 -6.203756,1.12706 -1.914468,0.75143 -3.561241,1.77562 -4.93975,3.0732 -1.455028,1.22933 -2.603495,2.69806 -3.445784,4.40541 -0.842549,1.70753 -1.264006,3.5515 -1.264006,5.53197 v 7.30704 c 0,1.57103 -0.650557,2.93655 -1.952335,4.09794 -1.301959,1.16084 -2.834117,1.74202 -4.595585,1.74202 -1.837979,0 -3.407832,-0.58118 -4.70979,-1.74202 -1.301739,-1.16139 -1.952336,-2.52691 -1.952336,-4.09794 v -7.30704 c 0,-3.61982 0.765569,-7.00027 2.297017,-10.14202 1.531789,-3.14182 3.600039,-5.87372 6.203756,-8.19588 0.21571,-0.19232 0.435821,-0.37994 0.657841,-0.56586 -1.816338,-1.28679 -3.433208,-2.80836 -4.847766,-4.56768 -2.881937,-3.65227 -4.322734,-7.81197 -4.322734,-12.47882 -0.0755,-2.97591 0.531372,-5.78281 1.820561,-8.42068 1.213429,-2.70511 2.957061,-5.10591 5.232239,-7.20266 2.350977,-2.16457 5.044136,-3.78737 8.077543,-4.86947 3.033527,-1.14981 6.180087,-1.72548 9.441284,-1.72548 z m -6.484875,11.66699 H 51.15142 c -3.185317,0 -5.915447,1.0149 -8.190714,3.04374 -1.137449,0.94713 -1.971711,2.09664 -2.50269,3.44941 -0.606509,1.28498 -0.909505,2.60409 -0.909505,3.95686 0,1.42041 0.302996,2.77263 0.909505,4.05763 0.606929,1.21738 1.441031,2.29994 2.50269,3.24683 1.061889,0.94689 2.313334,1.69083 3.754292,2.23191 1.365209,0.54108 2.843834,0.81132 4.436422,0.81132 h 26.164295 z m 76.137985,8.01915 c 1.83815,0 3.40844,0.58081 4.71031,1.74201 1.22547,1.16111 1.83813,2.56091 1.83813,4.20026 v 19.97708 19.97811 c 0,1.57087 -0.61266,2.93659 -1.83813,4.09794 -1.22371,1.09125 -2.68458,1.6689 -4.38216,1.73426 -0.10864,0.005 -0.21801,0.007 -0.32815,0.007 -0.11054,0 -0.21923,-0.002 -0.32763,-0.007 -1.69286,-0.0655 -3.1154,-0.64315 -4.26692,-1.73426 -1.30215,-1.16135 -1.95285,-2.52707 -1.95285,-4.09794 v -19.97811 c 0,-1.98055 -0.42151,-3.82443 -1.26401,-5.53196 -0.8424,-1.70735 -1.95252,-3.17563 -3.33106,-4.4049 -1.45509,-1.29763 -3.13959,-2.32246 -5.05447,-3.07372 -1.99108,-0.75125 -4.05901,-1.12706 -6.20324,-1.12706 -2.22102,0 -4.28916,0.37581 -6.20376,1.12706 -1.91449,0.75126 -3.56076,1.77609 -4.93923,3.07372 -1.4551,1.22927 -2.60426,2.69755 -3.44682,4.4049 -0.8422,1.70753 -1.26349,3.55141 -1.26349,5.53196 v 19.97811 c 0,1.57087 -0.6505,2.93659 -1.95233,4.09794 -1.30206,1.16087 -2.83354,1.74149 -4.59507,1.74149 -1.83799,0 -3.40826,-0.58062 -4.71031,-1.74149 -1.3018,-1.16135 -1.95233,-2.52707 -1.95233,-4.09794 v -19.97811 c 0,-3.61982 0.76587,-7.00025 2.29753,-10.14202 1.53167,-3.1418 3.59933,-5.87371 6.20324,-8.19588 2.60376,-2.3221 5.66714,-4.16653 9.19014,-5.53248 3.52266,-1.36607 7.31338,-2.04897 11.37243,-2.04897 3.98223,0 7.73486,0.6829 11.25771,2.04897 1.71364,0.66457 3.31731,1.4435 4.81366,2.33423 0.2893,-0.98633 0.86621,-1.86721 1.73426,-2.64119 1.30181,-1.1612 2.83314,-1.74201 4.59455,-1.74201 z m -143.027959,0.40153 c 1.820078,0 3.374539,0.57458 4.663798,1.72444 1.213538,1.14971 1.82056,2.53672 1.82056,4.15995 v 39.56606 c 0,1.55568 -0.607022,2.90807 -1.82056,4.05815 -1.289259,1.14956 -2.84372,1.72444 -4.663798,1.72444 -1.7442787,0 -3.2607416,-0.57488 -4.5501103,-1.72444 -1.2892287,-1.15008 -1.9337321,-2.50247 -1.9337321,-4.05815 v -39.56606 c 0,-1.62323 0.6445034,-3.01024 1.9337321,-4.15995 1.2893687,-1.14986 2.8058316,-1.72444 4.5501103,-1.72444 z m -98.857532,0 0.0016,5.1e-4 c 3.943156,8e-5 7.65957,0.67611 11.148157,2.02882 3.488496,1.35276 6.521882,3.17852 9.10022,5.47822 2.578677,2.29945 4.626465,5.00514 6.143294,8.1163 1.455268,2.9853 2.204488,6.19117 2.263428,9.61233 0.001,0.0239 0.0031,0.0469 0.0031,0.0713 0,0.0187 -0.001,0.0371 -0.001,0.0558 9.8e-4,0.10173 0.0083,0.20203 0.0083,0.30437 0,3.51697 -0.789099,5.72833 -0.789099,5.72833 h -5.17e-4 c -0.37215,1.39268 -0.875977,2.74386 -1.514636,4.0535 -1.531499,3.1417 -3.599919,5.87413 -6.203756,8.1964 -2.603797,2.32215 -5.666683,4.16584 -9.18962,5.53196 -3.522886,1.36592 -7.313536,2.04918 -11.372432,2.04897 l -11.273733,-5.1e-4 c -1.76142,-9e-5 -3.29307,-0.58015 -4.59507,-1.74098 -1.30169,-1.1614 -1.95285,-2.56144 -1.95285,-4.20078 0,-1.57076 0.65116,-2.93666 1.95285,-4.09794 1.302,-1.16093 2.83365,-1.74109 4.59507,-1.74098 l 11.273733,5.2e-4 c 2.220947,1.1e-4 4.288791,-0.37625 6.203239,-1.12758 1.914778,-0.75138 3.560624,-1.77556 4.939233,-3.0732 1.278659,-1.08043 2.320098,-2.34547 3.125907,-3.79512 h -32.862072 c -1.36502,0 -2.65416,-0.2371 -3.86747,-0.71055 -1.28937,-0.54102 -2.38891,-1.28468 -3.29902,-2.23139 -1.89611,-1.96126 -2.65453,-4.26095 -2.27532,-6.8988 h -5.1e-4 c 0.53103,-3.04356 1.66897,-5.88485 3.41323,-8.52248 1.66856,-2.63782 3.7537,-4.90309 6.25646,-6.797 2.50265,-1.96114 5.38483,-3.48301 8.645986,-4.56509 3.184697,-1.1498 6.559056,-1.72487 10.123413,-1.72496 z m 66.436772,0.50694 c 2.350947,0 4.549782,0.40631 6.59753,1.21802 2.047848,0.74405 3.830272,1.82605 5.34696,3.24631 1.5168985,1.3526 2.7299389,2.94215 3.640088,4.76818 0.910109,1.82624 1.3652913,3.78769 1.3652913,5.8844 0,1.89387 -0.3415476,3.68596 -1.0242269,5.37693 -0.7583292,1.62314 -1.7818417,3.11071 -3.0711304,4.4633 -1.365109,1.2852 -2.920046,2.3677 -4.664315,3.24683 -1.820028,0.87922 -3.753995,1.42027 -5.801713,1.62315 -2.881737,0.33815 -5.991286,0.71052 -9.328113,1.11621 -3.336756,0.33817 -6.446365,0.67629 -9.328112,1.01441 -0.910239,0.13519 -1.668148,0.50749 -2.274797,1.11621 -0.606689,0.60859 -0.910539,1.31859 -0.910539,2.1301 0,0.94701 0.379029,1.75856 1.137399,2.435 0.758409,0.6762 1.706732,1.01492 2.84427,1.01492 h 24.230046 c 1.744368,0 3.2611012,0.57467 4.5501099,1.72445 1.2894187,1.14974 1.9347656,2.53631 1.9347656,4.15943 0,1.55566 -0.6453469,2.90838 -1.9347656,4.05815 -1.2890087,1.14985 -2.8057419,1.72444 -4.5501099,1.72444 h -24.230046 c -2.275007,0 -4.43662,-0.37129 -6.484358,-1.11517 -2.123478,-0.81175 -3.981222,-1.92806 -5.57382,-3.34812 -1.592749,-1.42053 -2.805989,-3.04433 -3.640088,-4.8705 -0.834219,-1.89372 -1.25212,-3.82113 -1.25212,-5.7826 0,-1.89347 0.380082,-3.68608 1.138432,-5.37693 0.682509,-1.69088 1.668283,-3.17879 2.957442,-4.46381 1.289389,-1.35262 2.84362,-2.43457 4.663798,-3.24631 1.744278,-0.87924 3.678375,-1.45378 5.801713,-1.72444 l 18.656226,-2.02934 c 0.910139,-0.13526 1.668713,-0.50698 2.275313,-1.11569 0.606919,-0.60871 0.910022,-1.319 0.910022,-2.13062 0,-0.94684 -0.378979,-1.7585 -1.137398,-2.43499 -0.8343,-0.74401 -1.782106,-1.1157 -2.843754,-1.1157 h -22.524724 c -1.820238,0 -3.374539,-0.54087 -4.663798,-1.62316 -1.289319,-1.14977 -1.933732,-2.53707 -1.933732,-4.16047 0,-1.62301 0.644413,-2.97554 1.933732,-4.05763 1.289259,-1.14986 2.84356,-1.72496 4.663798,-1.72496 z m -66.435739,11.16004 c -3.185476,0 -6.028961,0.77799 -8.531779,2.33371 -2.578407,1.4879 -4.512583,3.44965 -5.801713,5.8844 h 28.553296 c -1.289418,-2.43475 -3.18496,-4.3965 -5.687508,-5.8844 -2.502587,-1.55572 -5.347319,-2.33371 -8.532296,-2.33371 z" /></g></g></svg>
