<?xml version="1.0" encoding="UTF-8" standalone="no"?>
<!-- Created with Inkscape (http://www.inkscape.org/) -->

<svg
   width="300mm"
   height="300mm"
   viewBox="0 0 300 300"
   version="1.1"
   id="svg5"
   xml:space="preserve"
   inkscape:version="1.2.2 (732a01da63, 2022-12-09)"
   sodipodi:docname="EnRise Symbol.svg"
   inkscape:export-filename="EnRise Symbol.png"
   inkscape:export-xdpi="105.98771"
   inkscape:export-ydpi="105.98771"
   xmlns:inkscape="http://www.inkscape.org/namespaces/inkscape"
   xmlns:sodipodi="http://sodipodi.sourceforge.net/DTD/sodipodi-0.dtd"
   xmlns="http://www.w3.org/2000/svg"
   xmlns:svg="http://www.w3.org/2000/svg"><sodipodi:namedview
     id="namedview7"
     pagecolor="#505050"
     bordercolor="#eeeeee"
     borderopacity="1"
     inkscape:showpageshadow="0"
     inkscape:pageopacity="0"
     inkscape:pagecheckerboard="0"
     inkscape:deskcolor="#505050"
     inkscape:document-units="mm"
     showgrid="false"
     inkscape:zoom="0.41386281"
     inkscape:cx="559.3641"
     inkscape:cy="541.24215"
     inkscape:window-width="1600"
     inkscape:window-height="837"
     inkscape:window-x="-8"
     inkscape:window-y="-8"
     inkscape:window-maximized="1"
     inkscape:current-layer="layer2" /><defs
     id="defs2"><linearGradient
       id="linearGradient9279"
       inkscape:swatch="solid"><stop
         style="stop-color:#333333;stop-opacity:1;"
         offset="0"
         id="stop9277" /></linearGradient></defs><g
     inkscape:groupmode="layer"
     id="layer2"
     inkscape:label="Layer 2"
     style="display:inline"><g
       id="g6811"
       transform="translate(19.923268,1.4479588)"
       style="stroke:#1a2e45;stroke-opacity:1;fill:#1a2e45;fill-opacity:1"><path
         id="path4994"
         style="display:inline;fill:#1a2e45;fill-opacity:1;stroke:#1a2e45;stroke-width:0.605143;stroke-linecap:round;stroke-miterlimit:3.9;stroke-opacity:1;paint-order:markers fill stroke"
         d="m 152.73848,68.26095 c -0.0249,0.397521 -0.0632,0.794007 -0.11369,1.189074 8.6e-4,0.144473 0.001,0.28908 0.002,0.433566 0.007,0.737377 0.0128,1.475368 0.0553,2.211751 0.0128,0.161501 0.0251,0.32161 0.0465,0.481624 a 11.483479,18.607521 0 0 1 5.52318,14.855941 v 5.17e-4 c 0.003,0.01313 0.006,0.02605 0.009,0.03927 0.0148,0.08973 0.0297,0.179941 0.0227,0.271301 -0.001,0.0484 -0.003,0.09687 -0.006,0.145211 a 11.483479,18.607521 0 0 1 0.004,0.06563 h -0.008 c -0.002,0.01976 -0.003,0.0397 -0.005,0.05943 -0.001,0.01343 -0.003,0.02689 -0.004,0.04031 h 0.0181 a 11.483479,18.607521 0 0 1 -7.59437,17.371035 c -0.004,0.3407 -0.009,0.68145 -0.0129,1.02216 a 71.665382,71.665382 0 0 1 70.9905,71.65505 71.665382,71.665382 0 0 1 -71.66539,71.6654 71.665382,71.665382 0 0 1 -65.993908,-43.75289 H 49.637797 l -5.998083,8.30389 21.956799,36.99981 19.953304,-1.57872 a 95.489479,97.180321 0 0 0 33.407263,20.18947 l 6.38049,11.98893 48.10662,-0.0537 6.92154,-11.63185 a 95.489479,97.180321 0 0 0 35.973,-22.23947 l 17.79323,1.40715 21.95628,-36.99929 -12.15739,-16.8305 a 95.489479,97.180321 0 0 0 1.55856,-17.46819 95.489479,97.180321 0 0 0 -2.54558,-22.20019 L 254.524,139.75116 232.67417,103.56991 212.725,104.91711 A 95.489479,97.180321 0 0 0 181.46024,86.420565 L 171.10273,68.282654 Z" /><rect
         style="display:inline;fill:#1a2e45;fill-opacity:1;stroke:#1a2e45;stroke-width:0.608901;stroke-linecap:round;stroke-miterlimit:3.9;stroke-opacity:1;paint-order:markers fill stroke"
         id="rect6594"
         width="116.2325"
         height="22.558838"
         x="4.0081782"
         y="179.93976"
         ry="8.8633089"
         rx="11.003961" /><path
         id="path6599"
         style="display:inline;fill:#1a2e45;fill-opacity:1;stroke:#1a2e45;stroke-width:0.635619;stroke-linecap:round;stroke-miterlimit:3.9;stroke-opacity:1;paint-order:markers fill stroke"
         d="m 139.54084,15.213542 c -0.0726,0.01801 -0.14597,0.03184 -0.21601,0.06253 -0.10539,0.04718 -0.20823,0.09889 -0.30954,0.153479 -0.0258,0.01831 -0.0535,0.0336 -0.0791,0.05219 -0.17716,0.128737 -0.34994,0.265529 -0.51159,0.413929 -0.0165,0.0368 -0.0329,0.07366 -0.0491,0.110587 l -0.29197,7.263639 -3.87315,-2.567285 c -0.93384,-0.618929 -1.97801,-0.92842 -3.00085,-0.950846 -1.70473,-0.03738 -3.35116,0.723491 -4.33462,2.180745 -1.57352,2.331623 -0.83556,5.537189 1.65468,7.187675 l 0.72812,0.482658 -68.091448,101.509567 -0.316259,-0.20981 c -2.490217,-1.65038 -5.761452,-1.10226 -7.334953,1.22939 -1.573514,2.33152 -0.835525,5.53768 1.654679,7.18819 l 32.617647,21.61883 c 2.490217,1.65052 5.761969,1.10175 7.33547,-1.2299 1.573501,-2.33151 0.835525,-5.53716 -1.654679,-7.18767 l -0.612883,-0.40618 32.457446,-48.38722 a 18.40119,18.40119 0 0 0 8.58759,2.14147 18.40119,18.40119 0 0 0 18.40095,-18.401465 18.40119,18.40119 0 0 0 -6.60735,-14.124202 l 15.2523,-22.738147 0.20102,0.133325 c 2.49024,1.650487 5.76194,1.10224 7.33547,-1.229383 1.57353,-2.331609 0.83556,-5.537705 -1.65468,-7.188191 l -5.20227,-3.447852 7.31274,-1.088822 c 0.18974,-0.13123 0.36235,-0.284799 0.51986,-0.454753 0.0422,-0.04821 0.0801,-0.09965 0.11421,-0.152962 0.0714,-0.18114 0.12068,-0.371995 0.16588,-0.559139 0.0306,-0.14494 0.0537,-0.291434 0.0713,-0.438733 v -5.17e-4 c -0.0999,-0.250662 -0.20746,-0.498183 -0.31833,-0.74414 L 139.85193,15.30966 c -0.10433,-0.02982 -0.20826,-0.06108 -0.31109,-0.09612 z m -5.68028,62.625118 a 9.2592773,9.2592773 0 0 1 9.25939,9.258866 9.2592773,9.2592773 0 0 1 -9.25939,9.259383 9.2592773,9.2592773 0 0 1 -9.25938,-9.259383 9.2592773,9.2592773 0 0 1 9.25938,-9.258866 z" /></g></g></svg>
